<svg xmlns="http://www.w3.org/2000/svg" viewBox="0 0 512 512" role="img" aria-label="PackThisTrip icon">
  <rect width="512" height="512" rx="104" fill="#0f172a"/>
  <path fill="#ffffff" d="M152 176c0-30.9 25.1-56 56-56h96c30.9 0 56 25.1 56 56h24c22.1 0 40 17.9 40 40v136c0 22.1-17.9 40-40 40H128c-22.1 0-40-17.9-40-40V216c0-22.1 17.9-40 40-40h24Zm40 0h128c0-8.8-7.2-16-16-16h-96c-8.8 0-16 7.2-16 16Zm-24 72a20 20 0 1 0 0 40h176a20 20 0 1 0 0-40H168Zm0 72a20 20 0 1 0 0 40h112a20 20 0 1 0 0-40H168Z"/>
</svg>
